<svg width="160" height="147" viewBox="0 0 160 147" fill="none" xmlns="http://www.w3.org/2000/svg">
<path d="M116 0C102.08 0 88.72 6.48 80 16.72C71.28 6.48 57.92 0 44 0C19.36 0 0 19.36 0 44C0 74.24 27.2 98.88 68.4 136.32L80 146.8L91.6 136.24C132.8 98.88 160 74.24 160 44C160 19.36 140.64 0 116 0ZM80.8 124.4L80 125.2L79.2 124.4C41.12 89.92 16 67.12 16 44C16 28 28 16 44 16C56.32 16 68.32 23.92 72.56 34.88H87.52C91.68 23.92 103.68 16 116 16C132 16 144 28 144 44C144 67.12 118.88 89.92 80.8 124.4Z" fill="#894AFF"/>
</svg>
