<svg width="192" height="192" viewBox="0 0 192 192" fill="none" xmlns="http://www.w3.org/2000/svg">
<g clip-path="url(#clip0_3_5)">
<path d="M96 47.2C105.28 47.2 112.8 54.72 112.8 64C112.8 73.28 105.28 80.8 96 80.8C86.72 80.8 79.2 73.28 79.2 64C79.2 54.72 86.72 47.2 96 47.2ZM96 119.2C119.76 119.2 144.8 130.88 144.8 136V144.8H47.2V136C47.2 130.88 72.24 119.2 96 119.2ZM96 32C78.32 32 64 46.32 64 64C64 81.68 78.32 96 96 96C113.68 96 128 81.68 128 64C128 46.32 113.68 32 96 32ZM96 104C74.64 104 32 114.72 32 136V160H160V136C160 114.72 117.36 104 96 104Z" fill="black"/>
</g>
<defs>
<clipPath id="clip0_3_5">
<rect width="192" height="192" fill="white"/>
</clipPath>
</defs>
</svg>
