<svg xmlns="http://www.w3.org/2000/svg" width="192" height="192" viewBox="0 0 192 192" fill="none">
  <g clip-path="url(#clip0_1_5)">
    <path d="M116 104H109.68L107.44 101.84C115.28 92.72 120 80.88 120 68C120 39.28 96.72 16 68 16C39.28 16 16 39.28 16 68C16 96.72 39.28 120 68 120C80.88 120 92.72 115.28 101.84 107.44L104 109.68V116L144 155.92L155.92 144L116 104ZM68 104C48.08 104 32 87.92 32 68C32 48.08 48.08 32 68 32C87.92 32 104 48.08 104 68C104 87.92 87.92 104 68 104Z" fill="black"/>
  </g>
  <defs>
    <clipPath id="clip0_1_5">
      <rect width="192" height="192" fill="white"/>
    </clipPath>
  </defs>
</svg>